<mxfile host="app.diagrams.net" agent="Mozilla/5.0 (Windows NT 10.0; Win64; x64) AppleWebKit/537.36 (KHTML, like Gecko) Chrome/130.0.0.0 Safari/537.36" version="24.8.6">
  <diagram name="Page-1" id="vrvdi_PL2bMomqTCZfpG">
    <mxGraphModel dx="2250" dy="1807" grid="1" gridSize="10" guides="1" tooltips="1" connect="1" arrows="1" fold="1" page="1" pageScale="1" pageWidth="850" pageHeight="1100" math="0" shadow="0">
      <root>
        <mxCell id="0" />
        <mxCell id="1" parent="0" />
        <mxCell id="ydF3F2oM5LsTnoHVHjbH-1" value="user" style="rounded=0;whiteSpace=wrap;html=1;" vertex="1" parent="1">
          <mxGeometry x="70" y="70" width="80" height="30" as="geometry" />
        </mxCell>
        <mxCell id="ydF3F2oM5LsTnoHVHjbH-2" value="" style="endArrow=none;html=1;rounded=0;exitX=0;exitY=0;exitDx=0;exitDy=0;" edge="1" parent="1" source="ydF3F2oM5LsTnoHVHjbH-1">
          <mxGeometry width="50" height="50" relative="1" as="geometry">
            <mxPoint x="-10" y="70" as="sourcePoint" />
            <mxPoint x="40" y="20" as="targetPoint" />
          </mxGeometry>
        </mxCell>
        <mxCell id="ydF3F2oM5LsTnoHVHjbH-3" value="id" style="ellipse;whiteSpace=wrap;html=1;" vertex="1" parent="1">
          <mxGeometry y="-10" width="60" height="30" as="geometry" />
        </mxCell>
        <mxCell id="ydF3F2oM5LsTnoHVHjbH-4" value="firstName" style="ellipse;whiteSpace=wrap;html=1;" vertex="1" parent="1">
          <mxGeometry x="60" y="-30" width="60" height="30" as="geometry" />
        </mxCell>
        <mxCell id="ydF3F2oM5LsTnoHVHjbH-5" value="" style="endArrow=none;html=1;rounded=0;exitX=0.25;exitY=0;exitDx=0;exitDy=0;" edge="1" parent="1" source="ydF3F2oM5LsTnoHVHjbH-1">
          <mxGeometry width="50" height="50" relative="1" as="geometry">
            <mxPoint x="100" y="60" as="sourcePoint" />
            <mxPoint x="90" as="targetPoint" />
          </mxGeometry>
        </mxCell>
        <mxCell id="ydF3F2oM5LsTnoHVHjbH-6" value="secondName" style="ellipse;whiteSpace=wrap;html=1;" vertex="1" parent="1">
          <mxGeometry x="120" y="-30" width="80" height="30" as="geometry" />
        </mxCell>
        <mxCell id="ydF3F2oM5LsTnoHVHjbH-7" value="" style="endArrow=none;html=1;rounded=0;exitX=0.5;exitY=0;exitDx=0;exitDy=0;entryX=0.5;entryY=1;entryDx=0;entryDy=0;" edge="1" parent="1" source="ydF3F2oM5LsTnoHVHjbH-1" target="ydF3F2oM5LsTnoHVHjbH-6">
          <mxGeometry width="50" height="50" relative="1" as="geometry">
            <mxPoint x="130" y="60" as="sourcePoint" />
            <mxPoint x="139" y="20" as="targetPoint" />
          </mxGeometry>
        </mxCell>
        <mxCell id="ydF3F2oM5LsTnoHVHjbH-9" value="email" style="ellipse;whiteSpace=wrap;html=1;" vertex="1" parent="1">
          <mxGeometry x="200" y="-30" width="60" height="30" as="geometry" />
        </mxCell>
        <mxCell id="ydF3F2oM5LsTnoHVHjbH-10" value="" style="endArrow=none;html=1;rounded=0;exitX=0.75;exitY=0;exitDx=0;exitDy=0;" edge="1" parent="1" source="ydF3F2oM5LsTnoHVHjbH-1">
          <mxGeometry width="50" height="50" relative="1" as="geometry">
            <mxPoint x="220" y="70" as="sourcePoint" />
            <mxPoint x="220" as="targetPoint" />
          </mxGeometry>
        </mxCell>
        <mxCell id="ydF3F2oM5LsTnoHVHjbH-11" value="password" style="ellipse;whiteSpace=wrap;html=1;" vertex="1" parent="1">
          <mxGeometry x="-50" y="20" width="60" height="30" as="geometry" />
        </mxCell>
        <mxCell id="ydF3F2oM5LsTnoHVHjbH-12" value="" style="endArrow=none;html=1;rounded=0;exitX=0;exitY=0.25;exitDx=0;exitDy=0;" edge="1" parent="1" source="ydF3F2oM5LsTnoHVHjbH-1">
          <mxGeometry width="50" height="50" relative="1" as="geometry">
            <mxPoint x="40" y="90" as="sourcePoint" />
            <mxPoint x="10" y="40" as="targetPoint" />
          </mxGeometry>
        </mxCell>
        <mxCell id="ydF3F2oM5LsTnoHVHjbH-15" value="userProfile" style="rounded=0;whiteSpace=wrap;html=1;" vertex="1" parent="1">
          <mxGeometry x="480" y="70" width="80" height="30" as="geometry" />
        </mxCell>
        <mxCell id="ydF3F2oM5LsTnoHVHjbH-16" value="" style="endArrow=none;html=1;rounded=0;exitX=0;exitY=0;exitDx=0;exitDy=0;" edge="1" parent="1" source="ydF3F2oM5LsTnoHVHjbH-15">
          <mxGeometry width="50" height="50" relative="1" as="geometry">
            <mxPoint x="470" y="70" as="sourcePoint" />
            <mxPoint x="440" y="20" as="targetPoint" />
          </mxGeometry>
        </mxCell>
        <mxCell id="ydF3F2oM5LsTnoHVHjbH-17" value="id" style="ellipse;whiteSpace=wrap;html=1;" vertex="1" parent="1">
          <mxGeometry x="400" y="-10" width="60" height="30" as="geometry" />
        </mxCell>
        <mxCell id="ydF3F2oM5LsTnoHVHjbH-18" value="userId" style="rhombus;whiteSpace=wrap;html=1;" vertex="1" parent="1">
          <mxGeometry x="290" y="52.5" width="70" height="65" as="geometry" />
        </mxCell>
        <mxCell id="ydF3F2oM5LsTnoHVHjbH-19" value="" style="endArrow=none;html=1;rounded=0;entryX=0;entryY=0.5;entryDx=0;entryDy=0;exitX=1;exitY=0.5;exitDx=0;exitDy=0;" edge="1" parent="1" source="ydF3F2oM5LsTnoHVHjbH-18" target="ydF3F2oM5LsTnoHVHjbH-15">
          <mxGeometry width="50" height="50" relative="1" as="geometry">
            <mxPoint x="340" y="130" as="sourcePoint" />
            <mxPoint x="390" y="80" as="targetPoint" />
          </mxGeometry>
        </mxCell>
        <mxCell id="ydF3F2oM5LsTnoHVHjbH-20" value="" style="endArrow=none;html=1;rounded=0;entryX=0;entryY=0.5;entryDx=0;entryDy=0;exitX=1;exitY=0.5;exitDx=0;exitDy=0;" edge="1" parent="1" source="ydF3F2oM5LsTnoHVHjbH-1" target="ydF3F2oM5LsTnoHVHjbH-18">
          <mxGeometry width="50" height="50" relative="1" as="geometry">
            <mxPoint x="170" y="170" as="sourcePoint" />
            <mxPoint x="220" y="120" as="targetPoint" />
          </mxGeometry>
        </mxCell>
        <mxCell id="ydF3F2oM5LsTnoHVHjbH-21" value="" style="endArrow=none;html=1;rounded=0;exitX=0.25;exitY=0;exitDx=0;exitDy=0;" edge="1" parent="1" source="ydF3F2oM5LsTnoHVHjbH-15">
          <mxGeometry width="50" height="50" relative="1" as="geometry">
            <mxPoint x="500" y="68" as="sourcePoint" />
            <mxPoint x="480" as="targetPoint" />
          </mxGeometry>
        </mxCell>
        <mxCell id="ydF3F2oM5LsTnoHVHjbH-22" value="goal" style="ellipse;whiteSpace=wrap;html=1;" vertex="1" parent="1">
          <mxGeometry x="450" y="-30" width="60" height="30" as="geometry" />
        </mxCell>
        <mxCell id="ydF3F2oM5LsTnoHVHjbH-23" value="" style="endArrow=none;html=1;rounded=0;exitX=0.5;exitY=0;exitDx=0;exitDy=0;" edge="1" parent="1" source="ydF3F2oM5LsTnoHVHjbH-15">
          <mxGeometry width="50" height="50" relative="1" as="geometry">
            <mxPoint x="520" y="50" as="sourcePoint" />
            <mxPoint x="540" as="targetPoint" />
          </mxGeometry>
        </mxCell>
        <mxCell id="ydF3F2oM5LsTnoHVHjbH-24" value="activityLevel" style="ellipse;whiteSpace=wrap;html=1;" vertex="1" parent="1">
          <mxGeometry x="510" y="-30" width="80" height="30" as="geometry" />
        </mxCell>
        <mxCell id="ydF3F2oM5LsTnoHVHjbH-25" value="" style="endArrow=none;html=1;rounded=0;exitX=0.75;exitY=0;exitDx=0;exitDy=0;entryX=0;entryY=1;entryDx=0;entryDy=0;" edge="1" parent="1" source="ydF3F2oM5LsTnoHVHjbH-15" target="ydF3F2oM5LsTnoHVHjbH-26">
          <mxGeometry width="50" height="50" relative="1" as="geometry">
            <mxPoint x="610" y="60" as="sourcePoint" />
            <mxPoint x="590" y="10" as="targetPoint" />
          </mxGeometry>
        </mxCell>
        <mxCell id="ydF3F2oM5LsTnoHVHjbH-26" value="gender" style="ellipse;whiteSpace=wrap;html=1;" vertex="1" parent="1">
          <mxGeometry x="590" y="-20" width="60" height="30" as="geometry" />
        </mxCell>
        <mxCell id="ydF3F2oM5LsTnoHVHjbH-27" value="dateOfBirth" style="ellipse;whiteSpace=wrap;html=1;" vertex="1" parent="1">
          <mxGeometry x="650" y="-10" width="80" height="30" as="geometry" />
        </mxCell>
        <mxCell id="ydF3F2oM5LsTnoHVHjbH-28" value="" style="endArrow=none;html=1;rounded=0;exitX=1;exitY=0;exitDx=0;exitDy=0;entryX=0;entryY=1;entryDx=0;entryDy=0;" edge="1" parent="1" source="ydF3F2oM5LsTnoHVHjbH-15" target="ydF3F2oM5LsTnoHVHjbH-27">
          <mxGeometry width="50" height="50" relative="1" as="geometry">
            <mxPoint x="610" y="84" as="sourcePoint" />
            <mxPoint x="669" y="20" as="targetPoint" />
          </mxGeometry>
        </mxCell>
        <mxCell id="ydF3F2oM5LsTnoHVHjbH-29" value="" style="endArrow=none;html=1;rounded=0;exitX=0;exitY=0.25;exitDx=0;exitDy=0;" edge="1" parent="1" source="ydF3F2oM5LsTnoHVHjbH-15">
          <mxGeometry width="50" height="50" relative="1" as="geometry">
            <mxPoint x="375" y="60" as="sourcePoint" />
            <mxPoint x="400" y="30" as="targetPoint" />
          </mxGeometry>
        </mxCell>
        <mxCell id="ydF3F2oM5LsTnoHVHjbH-30" value="height" style="ellipse;whiteSpace=wrap;html=1;" vertex="1" parent="1">
          <mxGeometry x="340" y="10" width="60" height="30" as="geometry" />
        </mxCell>
        <mxCell id="ydF3F2oM5LsTnoHVHjbH-31" value="" style="endArrow=none;html=1;rounded=0;exitX=1;exitY=0.25;exitDx=0;exitDy=0;entryX=0;entryY=0.5;entryDx=0;entryDy=0;" edge="1" parent="1" source="ydF3F2oM5LsTnoHVHjbH-15" target="ydF3F2oM5LsTnoHVHjbH-32">
          <mxGeometry width="50" height="50" relative="1" as="geometry">
            <mxPoint x="620" y="120" as="sourcePoint" />
            <mxPoint x="680" y="50" as="targetPoint" />
          </mxGeometry>
        </mxCell>
        <mxCell id="ydF3F2oM5LsTnoHVHjbH-32" value="weight" style="ellipse;whiteSpace=wrap;html=1;" vertex="1" parent="1">
          <mxGeometry x="680" y="22.5" width="60" height="30" as="geometry" />
        </mxCell>
        <mxCell id="ydF3F2oM5LsTnoHVHjbH-33" value="" style="endArrow=none;html=1;rounded=0;exitX=1;exitY=0.5;exitDx=0;exitDy=0;" edge="1" parent="1" source="ydF3F2oM5LsTnoHVHjbH-15">
          <mxGeometry width="50" height="50" relative="1" as="geometry">
            <mxPoint x="600" y="102.5" as="sourcePoint" />
            <mxPoint x="690" y="80" as="targetPoint" />
          </mxGeometry>
        </mxCell>
        <mxCell id="ydF3F2oM5LsTnoHVHjbH-35" value="goalWeight" style="ellipse;whiteSpace=wrap;html=1;" vertex="1" parent="1">
          <mxGeometry x="690" y="60" width="70" height="30" as="geometry" />
        </mxCell>
        <mxCell id="ydF3F2oM5LsTnoHVHjbH-38" value="" style="endArrow=none;html=1;rounded=0;exitX=1;exitY=0;exitDx=0;exitDy=0;" edge="1" parent="1" source="ydF3F2oM5LsTnoHVHjbH-1">
          <mxGeometry width="50" height="50" relative="1" as="geometry">
            <mxPoint x="230" y="60" as="sourcePoint" />
            <mxPoint x="260" y="20" as="targetPoint" />
          </mxGeometry>
        </mxCell>
        <mxCell id="ydF3F2oM5LsTnoHVHjbH-39" value="imageUrl" style="ellipse;whiteSpace=wrap;html=1;" vertex="1" parent="1">
          <mxGeometry x="250" y="-7.5" width="60" height="30" as="geometry" />
        </mxCell>
        <mxCell id="ydF3F2oM5LsTnoHVHjbH-40" value="" style="endArrow=none;html=1;rounded=0;entryX=0;entryY=0.5;entryDx=0;entryDy=0;" edge="1" parent="1" target="ydF3F2oM5LsTnoHVHjbH-1">
          <mxGeometry width="50" height="50" relative="1" as="geometry">
            <mxPoint x="-80" y="85" as="sourcePoint" />
            <mxPoint x="60" y="90" as="targetPoint" />
          </mxGeometry>
        </mxCell>
        <mxCell id="ydF3F2oM5LsTnoHVHjbH-41" value="userId" style="rhombus;whiteSpace=wrap;html=1;" vertex="1" parent="1">
          <mxGeometry x="-150" y="52.5" width="70" height="65" as="geometry" />
        </mxCell>
        <mxCell id="ydF3F2oM5LsTnoHVHjbH-42" value="" style="endArrow=none;html=1;rounded=0;entryX=0;entryY=0.5;entryDx=0;entryDy=0;exitX=1;exitY=0.5;exitDx=0;exitDy=0;" edge="1" parent="1">
          <mxGeometry width="50" height="50" relative="1" as="geometry">
            <mxPoint x="-270" y="84.5" as="sourcePoint" />
            <mxPoint x="-150" y="84.5" as="targetPoint" />
          </mxGeometry>
        </mxCell>
        <mxCell id="ydF3F2oM5LsTnoHVHjbH-43" value="nutritionsAndGoals" style="rounded=0;whiteSpace=wrap;html=1;" vertex="1" parent="1">
          <mxGeometry x="-380" y="70" width="110" height="30" as="geometry" />
        </mxCell>
        <mxCell id="ydF3F2oM5LsTnoHVHjbH-44" value="" style="endArrow=none;html=1;rounded=0;exitX=0;exitY=0;exitDx=0;exitDy=0;" edge="1" parent="1" source="ydF3F2oM5LsTnoHVHjbH-43">
          <mxGeometry width="50" height="50" relative="1" as="geometry">
            <mxPoint x="-440" y="42.5" as="sourcePoint" />
            <mxPoint x="-400" y="20" as="targetPoint" />
          </mxGeometry>
        </mxCell>
        <mxCell id="ydF3F2oM5LsTnoHVHjbH-45" value="id" style="ellipse;whiteSpace=wrap;html=1;" vertex="1" parent="1">
          <mxGeometry x="-440" y="-10" width="60" height="30" as="geometry" />
        </mxCell>
        <mxCell id="ydF3F2oM5LsTnoHVHjbH-46" value="" style="endArrow=none;html=1;rounded=0;exitX=0.25;exitY=0;exitDx=0;exitDy=0;" edge="1" parent="1" source="ydF3F2oM5LsTnoHVHjbH-43">
          <mxGeometry width="50" height="50" relative="1" as="geometry">
            <mxPoint x="-340" y="40" as="sourcePoint" />
            <mxPoint x="-360" y="-10" as="targetPoint" />
          </mxGeometry>
        </mxCell>
        <mxCell id="ydF3F2oM5LsTnoHVHjbH-47" value="caloriesGoal" style="ellipse;whiteSpace=wrap;html=1;" vertex="1" parent="1">
          <mxGeometry x="-400" y="-37.5" width="80" height="30" as="geometry" />
        </mxCell>
        <mxCell id="ydF3F2oM5LsTnoHVHjbH-48" value="" style="endArrow=none;html=1;rounded=0;exitX=0.5;exitY=0;exitDx=0;exitDy=0;" edge="1" parent="1" source="ydF3F2oM5LsTnoHVHjbH-43">
          <mxGeometry width="50" height="50" relative="1" as="geometry">
            <mxPoint x="-292" y="50" as="sourcePoint" />
            <mxPoint x="-300" y="-30" as="targetPoint" />
          </mxGeometry>
        </mxCell>
        <mxCell id="ydF3F2oM5LsTnoHVHjbH-49" value="carbsGoal" style="ellipse;whiteSpace=wrap;html=1;" vertex="1" parent="1">
          <mxGeometry x="-340" y="-60" width="80" height="30" as="geometry" />
        </mxCell>
        <mxCell id="ydF3F2oM5LsTnoHVHjbH-50" value="" style="endArrow=none;html=1;rounded=0;exitX=0.75;exitY=0;exitDx=0;exitDy=0;" edge="1" parent="1" source="ydF3F2oM5LsTnoHVHjbH-43">
          <mxGeometry width="50" height="50" relative="1" as="geometry">
            <mxPoint x="-260" y="45" as="sourcePoint" />
            <mxPoint x="-260" y="-10" as="targetPoint" />
          </mxGeometry>
        </mxCell>
        <mxCell id="ydF3F2oM5LsTnoHVHjbH-51" value="proteinGoal" style="ellipse;whiteSpace=wrap;html=1;" vertex="1" parent="1">
          <mxGeometry x="-280" y="-40" width="80" height="30" as="geometry" />
        </mxCell>
        <mxCell id="ydF3F2oM5LsTnoHVHjbH-52" value="" style="endArrow=none;html=1;rounded=0;exitX=1;exitY=0;exitDx=0;exitDy=0;" edge="1" parent="1" source="ydF3F2oM5LsTnoHVHjbH-43">
          <mxGeometry width="50" height="50" relative="1" as="geometry">
            <mxPoint x="-237" y="70" as="sourcePoint" />
            <mxPoint x="-200" y="10" as="targetPoint" />
          </mxGeometry>
        </mxCell>
        <mxCell id="ydF3F2oM5LsTnoHVHjbH-53" value="fatGoal" style="ellipse;whiteSpace=wrap;html=1;" vertex="1" parent="1">
          <mxGeometry x="-220" y="-20" width="80" height="30" as="geometry" />
        </mxCell>
        <mxCell id="ydF3F2oM5LsTnoHVHjbH-54" value="" style="endArrow=none;html=1;rounded=0;exitX=0;exitY=0.25;exitDx=0;exitDy=0;" edge="1" parent="1" source="ydF3F2oM5LsTnoHVHjbH-43">
          <mxGeometry width="50" height="50" relative="1" as="geometry">
            <mxPoint x="-475" y="72.5" as="sourcePoint" />
            <mxPoint x="-470" as="targetPoint" />
          </mxGeometry>
        </mxCell>
        <mxCell id="ydF3F2oM5LsTnoHVHjbH-55" value="waterGoal" style="ellipse;whiteSpace=wrap;html=1;" vertex="1" parent="1">
          <mxGeometry x="-505" y="-30" width="80" height="30" as="geometry" />
        </mxCell>
        <mxCell id="ydF3F2oM5LsTnoHVHjbH-56" value="" style="endArrow=none;html=1;rounded=0;exitX=0;exitY=0.5;exitDx=0;exitDy=0;" edge="1" parent="1" source="ydF3F2oM5LsTnoHVHjbH-43">
          <mxGeometry width="50" height="50" relative="1" as="geometry">
            <mxPoint x="-420" y="100" as="sourcePoint" />
            <mxPoint x="-460" y="40" as="targetPoint" />
          </mxGeometry>
        </mxCell>
        <mxCell id="ydF3F2oM5LsTnoHVHjbH-57" value="stepGoal" style="ellipse;whiteSpace=wrap;html=1;" vertex="1" parent="1">
          <mxGeometry x="-505" y="10" width="60" height="30" as="geometry" />
        </mxCell>
        <mxCell id="ydF3F2oM5LsTnoHVHjbH-58" value="food" style="rounded=0;whiteSpace=wrap;html=1;" vertex="1" parent="1">
          <mxGeometry x="-260" y="260" width="100" height="30" as="geometry" />
        </mxCell>
        <mxCell id="ydF3F2oM5LsTnoHVHjbH-59" value="" style="endArrow=none;html=1;rounded=0;exitX=0;exitY=0;exitDx=0;exitDy=0;" edge="1" parent="1">
          <mxGeometry width="50" height="50" relative="1" as="geometry">
            <mxPoint x="-260" y="260" as="sourcePoint" />
            <mxPoint x="-280" y="210" as="targetPoint" />
          </mxGeometry>
        </mxCell>
        <mxCell id="ydF3F2oM5LsTnoHVHjbH-60" value="id" style="ellipse;whiteSpace=wrap;html=1;" vertex="1" parent="1">
          <mxGeometry x="-320" y="180" width="60" height="30" as="geometry" />
        </mxCell>
        <mxCell id="ydF3F2oM5LsTnoHVHjbH-61" value="" style="endArrow=none;html=1;rounded=0;exitX=0.25;exitY=0;exitDx=0;exitDy=0;" edge="1" parent="1" source="ydF3F2oM5LsTnoHVHjbH-58">
          <mxGeometry width="50" height="50" relative="1" as="geometry">
            <mxPoint x="-220" y="240" as="sourcePoint" />
            <mxPoint x="-240" y="190" as="targetPoint" />
          </mxGeometry>
        </mxCell>
        <mxCell id="ydF3F2oM5LsTnoHVHjbH-62" value="name" style="ellipse;whiteSpace=wrap;html=1;" vertex="1" parent="1">
          <mxGeometry x="-270" y="160" width="60" height="30" as="geometry" />
        </mxCell>
        <mxCell id="ydF3F2oM5LsTnoHVHjbH-63" value="" style="endArrow=none;html=1;rounded=0;exitX=0;exitY=0.25;exitDx=0;exitDy=0;entryX=1;entryY=1;entryDx=0;entryDy=0;" edge="1" parent="1" source="ydF3F2oM5LsTnoHVHjbH-58" target="ydF3F2oM5LsTnoHVHjbH-64">
          <mxGeometry width="50" height="50" relative="1" as="geometry">
            <mxPoint x="-305" y="280" as="sourcePoint" />
            <mxPoint x="-320" y="230" as="targetPoint" />
          </mxGeometry>
        </mxCell>
        <mxCell id="ydF3F2oM5LsTnoHVHjbH-64" value="measurement" style="ellipse;whiteSpace=wrap;html=1;" vertex="1" parent="1">
          <mxGeometry x="-390" y="200" width="80" height="30" as="geometry" />
        </mxCell>
        <mxCell id="ydF3F2oM5LsTnoHVHjbH-65" value="" style="endArrow=none;html=1;rounded=0;exitX=0.5;exitY=0;exitDx=0;exitDy=0;entryX=0;entryY=1;entryDx=0;entryDy=0;" edge="1" parent="1" source="ydF3F2oM5LsTnoHVHjbH-58" target="ydF3F2oM5LsTnoHVHjbH-66">
          <mxGeometry width="50" height="50" relative="1" as="geometry">
            <mxPoint x="-200" y="240" as="sourcePoint" />
            <mxPoint x="-200" y="200" as="targetPoint" />
          </mxGeometry>
        </mxCell>
        <mxCell id="ydF3F2oM5LsTnoHVHjbH-66" value="calories" style="ellipse;whiteSpace=wrap;html=1;" vertex="1" parent="1">
          <mxGeometry x="-210" y="170" width="60" height="30" as="geometry" />
        </mxCell>
        <mxCell id="ydF3F2oM5LsTnoHVHjbH-68" value="" style="endArrow=none;html=1;rounded=0;exitX=0.75;exitY=0;exitDx=0;exitDy=0;entryX=0;entryY=1;entryDx=0;entryDy=0;" edge="1" parent="1" source="ydF3F2oM5LsTnoHVHjbH-58" target="ydF3F2oM5LsTnoHVHjbH-69">
          <mxGeometry width="50" height="50" relative="1" as="geometry">
            <mxPoint x="-160" y="230" as="sourcePoint" />
            <mxPoint x="-140" y="210" as="targetPoint" />
          </mxGeometry>
        </mxCell>
        <mxCell id="ydF3F2oM5LsTnoHVHjbH-69" value="carbs" style="ellipse;whiteSpace=wrap;html=1;" vertex="1" parent="1">
          <mxGeometry x="-150" y="180" width="60" height="30" as="geometry" />
        </mxCell>
        <mxCell id="ydF3F2oM5LsTnoHVHjbH-70" value="" style="endArrow=none;html=1;rounded=0;entryX=0;entryY=0.5;entryDx=0;entryDy=0;" edge="1" parent="1" target="ydF3F2oM5LsTnoHVHjbH-58">
          <mxGeometry width="50" height="50" relative="1" as="geometry">
            <mxPoint x="-350" y="260" as="sourcePoint" />
            <mxPoint x="-310" y="250" as="targetPoint" />
          </mxGeometry>
        </mxCell>
        <mxCell id="ydF3F2oM5LsTnoHVHjbH-71" value="protein" style="ellipse;whiteSpace=wrap;html=1;" vertex="1" parent="1">
          <mxGeometry x="-410" y="240" width="60" height="30" as="geometry" />
        </mxCell>
        <mxCell id="ydF3F2oM5LsTnoHVHjbH-72" value="" style="endArrow=none;html=1;rounded=0;exitX=1;exitY=0;exitDx=0;exitDy=0;" edge="1" parent="1" source="ydF3F2oM5LsTnoHVHjbH-58">
          <mxGeometry width="50" height="50" relative="1" as="geometry">
            <mxPoint x="-110" y="270" as="sourcePoint" />
            <mxPoint x="-100" y="240" as="targetPoint" />
          </mxGeometry>
        </mxCell>
        <mxCell id="ydF3F2oM5LsTnoHVHjbH-73" value="fat" style="ellipse;whiteSpace=wrap;html=1;" vertex="1" parent="1">
          <mxGeometry x="-120" y="210" width="60" height="30" as="geometry" />
        </mxCell>
        <mxCell id="ydF3F2oM5LsTnoHVHjbH-75" value="" style="endArrow=none;html=1;rounded=0;exitX=1;exitY=0.25;exitDx=0;exitDy=0;" edge="1" parent="1" source="ydF3F2oM5LsTnoHVHjbH-58">
          <mxGeometry width="50" height="50" relative="1" as="geometry">
            <mxPoint x="-150" y="270" as="sourcePoint" />
            <mxPoint x="-80" y="260" as="targetPoint" />
          </mxGeometry>
        </mxCell>
        <mxCell id="ydF3F2oM5LsTnoHVHjbH-76" value="sugar" style="ellipse;whiteSpace=wrap;html=1;" vertex="1" parent="1">
          <mxGeometry x="-80" y="240" width="60" height="30" as="geometry" />
        </mxCell>
        <mxCell id="ydF3F2oM5LsTnoHVHjbH-77" value="foodIntake" style="rounded=0;whiteSpace=wrap;html=1;" vertex="1" parent="1">
          <mxGeometry x="60" y="420" width="100" height="30" as="geometry" />
        </mxCell>
        <mxCell id="ydF3F2oM5LsTnoHVHjbH-78" value="" style="endArrow=none;html=1;rounded=0;entryX=0.5;entryY=1;entryDx=0;entryDy=0;" edge="1" parent="1" target="ydF3F2oM5LsTnoHVHjbH-1">
          <mxGeometry width="50" height="50" relative="1" as="geometry">
            <mxPoint x="110" y="240" as="sourcePoint" />
            <mxPoint x="150" y="200" as="targetPoint" />
          </mxGeometry>
        </mxCell>
        <mxCell id="ydF3F2oM5LsTnoHVHjbH-79" value="userId" style="rhombus;whiteSpace=wrap;html=1;" vertex="1" parent="1">
          <mxGeometry x="75" y="240" width="70" height="65" as="geometry" />
        </mxCell>
        <mxCell id="ydF3F2oM5LsTnoHVHjbH-80" value="" style="endArrow=none;html=1;rounded=0;entryX=0.5;entryY=1;entryDx=0;entryDy=0;exitX=0.5;exitY=0;exitDx=0;exitDy=0;" edge="1" parent="1" source="ydF3F2oM5LsTnoHVHjbH-77" target="ydF3F2oM5LsTnoHVHjbH-79">
          <mxGeometry width="50" height="50" relative="1" as="geometry">
            <mxPoint x="109.5" y="500" as="sourcePoint" />
            <mxPoint x="109.5" y="360" as="targetPoint" />
          </mxGeometry>
        </mxCell>
        <mxCell id="ydF3F2oM5LsTnoHVHjbH-81" value="foodId" style="rhombus;whiteSpace=wrap;html=1;" vertex="1" parent="1">
          <mxGeometry x="-245" y="402.5" width="70" height="65" as="geometry" />
        </mxCell>
        <mxCell id="ydF3F2oM5LsTnoHVHjbH-82" value="" style="endArrow=none;html=1;rounded=0;entryX=0.5;entryY=1;entryDx=0;entryDy=0;exitX=0.5;exitY=0;exitDx=0;exitDy=0;" edge="1" parent="1" source="ydF3F2oM5LsTnoHVHjbH-81">
          <mxGeometry width="50" height="50" relative="1" as="geometry">
            <mxPoint x="-210" y="400" as="sourcePoint" />
            <mxPoint x="-210" y="290" as="targetPoint" />
          </mxGeometry>
        </mxCell>
        <mxCell id="ydF3F2oM5LsTnoHVHjbH-83" value="" style="endArrow=none;html=1;rounded=0;entryX=0;entryY=0.5;entryDx=0;entryDy=0;exitX=1;exitY=0.5;exitDx=0;exitDy=0;" edge="1" parent="1" source="ydF3F2oM5LsTnoHVHjbH-81">
          <mxGeometry width="50" height="50" relative="1" as="geometry">
            <mxPoint x="-90" y="434.5" as="sourcePoint" />
            <mxPoint x="60" y="434.5" as="targetPoint" />
          </mxGeometry>
        </mxCell>
        <mxCell id="ydF3F2oM5LsTnoHVHjbH-84" value="" style="endArrow=none;html=1;rounded=0;entryX=0;entryY=1;entryDx=0;entryDy=0;" edge="1" parent="1" target="ydF3F2oM5LsTnoHVHjbH-77">
          <mxGeometry width="50" height="50" relative="1" as="geometry">
            <mxPoint x="30" y="490" as="sourcePoint" />
            <mxPoint x="60" y="480" as="targetPoint" />
          </mxGeometry>
        </mxCell>
        <mxCell id="ydF3F2oM5LsTnoHVHjbH-85" value="id" style="ellipse;whiteSpace=wrap;html=1;" vertex="1" parent="1">
          <mxGeometry x="-10" y="490" width="60" height="30" as="geometry" />
        </mxCell>
        <mxCell id="ydF3F2oM5LsTnoHVHjbH-86" value="" style="endArrow=none;html=1;rounded=0;entryX=0.25;entryY=1;entryDx=0;entryDy=0;" edge="1" parent="1" target="ydF3F2oM5LsTnoHVHjbH-77">
          <mxGeometry width="50" height="50" relative="1" as="geometry">
            <mxPoint x="60" y="530" as="sourcePoint" />
            <mxPoint x="105" y="470" as="targetPoint" />
          </mxGeometry>
        </mxCell>
        <mxCell id="ydF3F2oM5LsTnoHVHjbH-87" value="quantity" style="ellipse;whiteSpace=wrap;html=1;" vertex="1" parent="1">
          <mxGeometry x="20" y="530" width="60" height="30" as="geometry" />
        </mxCell>
        <mxCell id="ydF3F2oM5LsTnoHVHjbH-88" value="" style="endArrow=none;html=1;rounded=0;entryX=0.5;entryY=1;entryDx=0;entryDy=0;" edge="1" parent="1" target="ydF3F2oM5LsTnoHVHjbH-77">
          <mxGeometry width="50" height="50" relative="1" as="geometry">
            <mxPoint x="100" y="520" as="sourcePoint" />
            <mxPoint x="125" y="467.5" as="targetPoint" />
          </mxGeometry>
        </mxCell>
        <mxCell id="ydF3F2oM5LsTnoHVHjbH-89" value="mealTime" style="ellipse;whiteSpace=wrap;html=1;" vertex="1" parent="1">
          <mxGeometry x="75" y="520" width="60" height="30" as="geometry" />
        </mxCell>
        <mxCell id="ydF3F2oM5LsTnoHVHjbH-90" value="" style="endArrow=none;html=1;rounded=0;entryX=0.75;entryY=1;entryDx=0;entryDy=0;" edge="1" parent="1" target="ydF3F2oM5LsTnoHVHjbH-77">
          <mxGeometry width="50" height="50" relative="1" as="geometry">
            <mxPoint x="150" y="500" as="sourcePoint" />
            <mxPoint x="170" y="480" as="targetPoint" />
          </mxGeometry>
        </mxCell>
        <mxCell id="ydF3F2oM5LsTnoHVHjbH-91" value="date" style="ellipse;whiteSpace=wrap;html=1;" vertex="1" parent="1">
          <mxGeometry x="120" y="500" width="60" height="30" as="geometry" />
        </mxCell>
        <mxCell id="ydF3F2oM5LsTnoHVHjbH-92" value="" style="endArrow=none;html=1;rounded=0;exitX=1;exitY=0.75;exitDx=0;exitDy=0;entryX=0;entryY=0.5;entryDx=0;entryDy=0;" edge="1" parent="1" source="ydF3F2oM5LsTnoHVHjbH-15" target="ydF3F2oM5LsTnoHVHjbH-93">
          <mxGeometry width="50" height="50" relative="1" as="geometry">
            <mxPoint x="661" y="200" as="sourcePoint" />
            <mxPoint x="690" y="110" as="targetPoint" />
          </mxGeometry>
        </mxCell>
        <mxCell id="ydF3F2oM5LsTnoHVHjbH-93" value="weeklyGoal" style="ellipse;whiteSpace=wrap;html=1;" vertex="1" parent="1">
          <mxGeometry x="690" y="90" width="80" height="30" as="geometry" />
        </mxCell>
        <mxCell id="ydF3F2oM5LsTnoHVHjbH-94" value="recommendation" style="rounded=0;whiteSpace=wrap;html=1;" vertex="1" parent="1">
          <mxGeometry x="375" y="320" width="100" height="30" as="geometry" />
        </mxCell>
        <mxCell id="ydF3F2oM5LsTnoHVHjbH-102" value="" style="endArrow=none;html=1;rounded=0;entryX=0.75;entryY=1;entryDx=0;entryDy=0;" edge="1" parent="1" target="ydF3F2oM5LsTnoHVHjbH-1">
          <mxGeometry width="50" height="50" relative="1" as="geometry">
            <mxPoint x="130" y="230" as="sourcePoint" />
            <mxPoint x="180" y="132.5" as="targetPoint" />
          </mxGeometry>
        </mxCell>
        <mxCell id="ydF3F2oM5LsTnoHVHjbH-105" value="userId" style="rhombus;whiteSpace=wrap;html=1;" vertex="1" parent="1">
          <mxGeometry x="200" y="200" width="70" height="65" as="geometry" />
        </mxCell>
        <mxCell id="ydF3F2oM5LsTnoHVHjbH-106" value="" style="endArrow=none;html=1;rounded=0;entryX=0;entryY=0.5;entryDx=0;entryDy=0;" edge="1" parent="1" target="ydF3F2oM5LsTnoHVHjbH-105">
          <mxGeometry width="50" height="50" relative="1" as="geometry">
            <mxPoint x="130" y="233" as="sourcePoint" />
            <mxPoint x="360" y="260" as="targetPoint" />
          </mxGeometry>
        </mxCell>
        <mxCell id="ydF3F2oM5LsTnoHVHjbH-109" value="" style="endArrow=none;html=1;rounded=0;exitX=1;exitY=0.5;exitDx=0;exitDy=0;" edge="1" parent="1" source="ydF3F2oM5LsTnoHVHjbH-105">
          <mxGeometry width="50" height="50" relative="1" as="geometry">
            <mxPoint x="310" y="310" as="sourcePoint" />
            <mxPoint x="430" y="233" as="targetPoint" />
          </mxGeometry>
        </mxCell>
        <mxCell id="ydF3F2oM5LsTnoHVHjbH-110" value="" style="endArrow=none;html=1;rounded=0;exitX=0.5;exitY=0;exitDx=0;exitDy=0;" edge="1" parent="1" source="ydF3F2oM5LsTnoHVHjbH-94">
          <mxGeometry width="50" height="50" relative="1" as="geometry">
            <mxPoint x="390" y="320" as="sourcePoint" />
            <mxPoint x="425" y="230" as="targetPoint" />
          </mxGeometry>
        </mxCell>
        <mxCell id="ydF3F2oM5LsTnoHVHjbH-111" value="" style="endArrow=none;html=1;rounded=0;entryX=0.25;entryY=1;entryDx=0;entryDy=0;exitX=0.5;exitY=0;exitDx=0;exitDy=0;" edge="1" parent="1" source="ydF3F2oM5LsTnoHVHjbH-112" target="ydF3F2oM5LsTnoHVHjbH-94">
          <mxGeometry width="50" height="50" relative="1" as="geometry">
            <mxPoint x="360" y="400" as="sourcePoint" />
            <mxPoint x="330" y="352.5" as="targetPoint" />
          </mxGeometry>
        </mxCell>
        <mxCell id="ydF3F2oM5LsTnoHVHjbH-112" value="id" style="ellipse;whiteSpace=wrap;html=1;" vertex="1" parent="1">
          <mxGeometry x="315" y="400" width="60" height="30" as="geometry" />
        </mxCell>
        <mxCell id="ydF3F2oM5LsTnoHVHjbH-113" value="" style="endArrow=none;html=1;rounded=0;entryX=0.5;entryY=1;entryDx=0;entryDy=0;" edge="1" parent="1" target="ydF3F2oM5LsTnoHVHjbH-94">
          <mxGeometry width="50" height="50" relative="1" as="geometry">
            <mxPoint x="400" y="410" as="sourcePoint" />
            <mxPoint x="430" y="360" as="targetPoint" />
          </mxGeometry>
        </mxCell>
        <mxCell id="ydF3F2oM5LsTnoHVHjbH-114" value="date" style="ellipse;whiteSpace=wrap;html=1;" vertex="1" parent="1">
          <mxGeometry x="375" y="410" width="60" height="30" as="geometry" />
        </mxCell>
        <mxCell id="ydF3F2oM5LsTnoHVHjbH-115" value="" style="endArrow=none;html=1;rounded=0;entryX=0.75;entryY=1;entryDx=0;entryDy=0;" edge="1" parent="1" target="ydF3F2oM5LsTnoHVHjbH-94">
          <mxGeometry width="50" height="50" relative="1" as="geometry">
            <mxPoint x="460" y="410" as="sourcePoint" />
            <mxPoint x="480" y="370" as="targetPoint" />
          </mxGeometry>
        </mxCell>
        <mxCell id="ydF3F2oM5LsTnoHVHjbH-116" value="recommendation" style="ellipse;whiteSpace=wrap;html=1;" vertex="1" parent="1">
          <mxGeometry x="435" y="410" width="105" height="30" as="geometry" />
        </mxCell>
        <mxCell id="ydF3F2oM5LsTnoHVHjbH-117" value="exercise" style="rounded=0;whiteSpace=wrap;html=1;" vertex="1" parent="1">
          <mxGeometry x="670" y="280" width="100" height="30" as="geometry" />
        </mxCell>
        <mxCell id="ydF3F2oM5LsTnoHVHjbH-118" value="" style="endArrow=none;html=1;rounded=0;entryX=1;entryY=1;entryDx=0;entryDy=0;" edge="1" parent="1" target="ydF3F2oM5LsTnoHVHjbH-1">
          <mxGeometry width="50" height="50" relative="1" as="geometry">
            <mxPoint x="150" y="190" as="sourcePoint" />
            <mxPoint x="210" y="140" as="targetPoint" />
          </mxGeometry>
        </mxCell>
        <mxCell id="ydF3F2oM5LsTnoHVHjbH-120" value="userId" style="rhombus;whiteSpace=wrap;html=1;" vertex="1" parent="1">
          <mxGeometry x="500" y="152.5" width="70" height="65" as="geometry" />
        </mxCell>
        <mxCell id="ydF3F2oM5LsTnoHVHjbH-121" value="" style="endArrow=none;html=1;rounded=0;exitX=0.5;exitY=0;exitDx=0;exitDy=0;" edge="1" parent="1" source="ydF3F2oM5LsTnoHVHjbH-117">
          <mxGeometry width="50" height="50" relative="1" as="geometry">
            <mxPoint x="705" y="240" as="sourcePoint" />
            <mxPoint x="720" y="180" as="targetPoint" />
          </mxGeometry>
        </mxCell>
        <mxCell id="ydF3F2oM5LsTnoHVHjbH-122" value="" style="endArrow=none;html=1;rounded=0;exitX=1;exitY=0.5;exitDx=0;exitDy=0;" edge="1" parent="1" source="ydF3F2oM5LsTnoHVHjbH-120">
          <mxGeometry width="50" height="50" relative="1" as="geometry">
            <mxPoint x="650" y="200" as="sourcePoint" />
            <mxPoint x="720" y="185" as="targetPoint" />
          </mxGeometry>
        </mxCell>
        <mxCell id="ydF3F2oM5LsTnoHVHjbH-123" value="" style="endArrow=none;html=1;rounded=0;entryX=0;entryY=0.5;entryDx=0;entryDy=0;" edge="1" parent="1" target="ydF3F2oM5LsTnoHVHjbH-120">
          <mxGeometry width="50" height="50" relative="1" as="geometry">
            <mxPoint x="150" y="185" as="sourcePoint" />
            <mxPoint x="440" y="160" as="targetPoint" />
          </mxGeometry>
        </mxCell>
        <mxCell id="ydF3F2oM5LsTnoHVHjbH-124" value="" style="endArrow=none;html=1;rounded=0;entryX=0;entryY=0.75;entryDx=0;entryDy=0;exitX=0.5;exitY=0;exitDx=0;exitDy=0;" edge="1" parent="1" target="ydF3F2oM5LsTnoHVHjbH-117">
          <mxGeometry width="50" height="50" relative="1" as="geometry">
            <mxPoint x="610" y="370" as="sourcePoint" />
            <mxPoint x="665" y="320" as="targetPoint" />
          </mxGeometry>
        </mxCell>
        <mxCell id="ydF3F2oM5LsTnoHVHjbH-125" value="id" style="ellipse;whiteSpace=wrap;html=1;" vertex="1" parent="1">
          <mxGeometry x="570" y="370" width="60" height="30" as="geometry" />
        </mxCell>
        <mxCell id="ydF3F2oM5LsTnoHVHjbH-126" value="" style="endArrow=none;html=1;rounded=0;entryX=0;entryY=1;entryDx=0;entryDy=0;" edge="1" parent="1" target="ydF3F2oM5LsTnoHVHjbH-117">
          <mxGeometry width="50" height="50" relative="1" as="geometry">
            <mxPoint x="650" y="380" as="sourcePoint" />
            <mxPoint x="700" y="335.5" as="targetPoint" />
          </mxGeometry>
        </mxCell>
        <mxCell id="ydF3F2oM5LsTnoHVHjbH-127" value="type" style="ellipse;whiteSpace=wrap;html=1;" vertex="1" parent="1">
          <mxGeometry x="630" y="380" width="60" height="30" as="geometry" />
        </mxCell>
        <mxCell id="ydF3F2oM5LsTnoHVHjbH-128" value="" style="endArrow=none;html=1;rounded=0;entryX=0.25;entryY=1;entryDx=0;entryDy=0;" edge="1" parent="1" target="ydF3F2oM5LsTnoHVHjbH-117">
          <mxGeometry width="50" height="50" relative="1" as="geometry">
            <mxPoint x="710" y="380" as="sourcePoint" />
            <mxPoint x="740" y="370" as="targetPoint" />
          </mxGeometry>
        </mxCell>
        <mxCell id="ydF3F2oM5LsTnoHVHjbH-129" value="steps" style="ellipse;whiteSpace=wrap;html=1;" vertex="1" parent="1">
          <mxGeometry x="690" y="380" width="60" height="30" as="geometry" />
        </mxCell>
        <mxCell id="ydF3F2oM5LsTnoHVHjbH-130" value="" style="endArrow=none;html=1;rounded=0;entryX=0.5;entryY=1;entryDx=0;entryDy=0;exitX=0;exitY=0;exitDx=0;exitDy=0;" edge="1" parent="1" source="ydF3F2oM5LsTnoHVHjbH-131" target="ydF3F2oM5LsTnoHVHjbH-117">
          <mxGeometry width="50" height="50" relative="1" as="geometry">
            <mxPoint x="760" y="370" as="sourcePoint" />
            <mxPoint x="745" y="310" as="targetPoint" />
          </mxGeometry>
        </mxCell>
        <mxCell id="ydF3F2oM5LsTnoHVHjbH-131" value="duration" style="ellipse;whiteSpace=wrap;html=1;" vertex="1" parent="1">
          <mxGeometry x="750" y="370" width="60" height="30" as="geometry" />
        </mxCell>
        <mxCell id="ydF3F2oM5LsTnoHVHjbH-133" value="" style="endArrow=none;html=1;rounded=0;entryX=0.75;entryY=1;entryDx=0;entryDy=0;" edge="1" parent="1" target="ydF3F2oM5LsTnoHVHjbH-117">
          <mxGeometry width="50" height="50" relative="1" as="geometry">
            <mxPoint x="819" y="350" as="sourcePoint" />
            <mxPoint x="780" y="316" as="targetPoint" />
          </mxGeometry>
        </mxCell>
        <mxCell id="ydF3F2oM5LsTnoHVHjbH-134" value="date" style="ellipse;whiteSpace=wrap;html=1;" vertex="1" parent="1">
          <mxGeometry x="800" y="350" width="60" height="30" as="geometry" />
        </mxCell>
        <mxCell id="ydF3F2oM5LsTnoHVHjbH-135" value="" style="endArrow=none;html=1;rounded=0;entryX=1;entryY=1;entryDx=0;entryDy=0;" edge="1" parent="1" source="ydF3F2oM5LsTnoHVHjbH-136" target="ydF3F2oM5LsTnoHVHjbH-117">
          <mxGeometry width="50" height="50" relative="1" as="geometry">
            <mxPoint x="850" y="330" as="sourcePoint" />
            <mxPoint x="776" y="310" as="targetPoint" />
          </mxGeometry>
        </mxCell>
        <mxCell id="ydF3F2oM5LsTnoHVHjbH-137" value="" style="endArrow=none;html=1;rounded=0;entryX=1;entryY=0.5;entryDx=0;entryDy=0;" edge="1" parent="1" target="ydF3F2oM5LsTnoHVHjbH-117">
          <mxGeometry width="50" height="50" relative="1" as="geometry">
            <mxPoint x="820" y="295" as="sourcePoint" />
            <mxPoint x="810" y="280" as="targetPoint" />
          </mxGeometry>
        </mxCell>
        <mxCell id="ydF3F2oM5LsTnoHVHjbH-138" value="workoutActivityLevel" style="ellipse;whiteSpace=wrap;html=1;" vertex="1" parent="1">
          <mxGeometry x="790" y="280" width="120" height="30" as="geometry" />
        </mxCell>
        <mxCell id="ydF3F2oM5LsTnoHVHjbH-139" value="" style="endArrow=none;html=1;rounded=0;entryX=1;entryY=1;entryDx=0;entryDy=0;" edge="1" parent="1" target="ydF3F2oM5LsTnoHVHjbH-136">
          <mxGeometry width="50" height="50" relative="1" as="geometry">
            <mxPoint x="850" y="330" as="sourcePoint" />
            <mxPoint x="770" y="310" as="targetPoint" />
          </mxGeometry>
        </mxCell>
        <mxCell id="ydF3F2oM5LsTnoHVHjbH-136" value="caloriesBurned" style="ellipse;whiteSpace=wrap;html=1;" vertex="1" parent="1">
          <mxGeometry x="810" y="310" width="90" height="30" as="geometry" />
        </mxCell>
        <mxCell id="ydF3F2oM5LsTnoHVHjbH-140" value="1" style="text;html=1;align=center;verticalAlign=middle;whiteSpace=wrap;rounded=0;" vertex="1" parent="1">
          <mxGeometry x="145" y="60" width="60" height="30" as="geometry" />
        </mxCell>
        <mxCell id="ydF3F2oM5LsTnoHVHjbH-141" value="1" style="text;html=1;align=center;verticalAlign=middle;whiteSpace=wrap;rounded=0;" vertex="1" parent="1">
          <mxGeometry x="420" y="60" width="60" height="30" as="geometry" />
        </mxCell>
        <mxCell id="ydF3F2oM5LsTnoHVHjbH-142" value="1" style="text;html=1;align=center;verticalAlign=middle;whiteSpace=wrap;rounded=0;" vertex="1" parent="1">
          <mxGeometry x="15" y="60" width="60" height="30" as="geometry" />
        </mxCell>
        <mxCell id="ydF3F2oM5LsTnoHVHjbH-143" value="1" style="text;html=1;align=center;verticalAlign=middle;whiteSpace=wrap;rounded=0;" vertex="1" parent="1">
          <mxGeometry x="-280" y="60" width="60" height="30" as="geometry" />
        </mxCell>
        <mxCell id="ydF3F2oM5LsTnoHVHjbH-144" value="1" style="text;html=1;align=center;verticalAlign=middle;whiteSpace=wrap;rounded=0;" vertex="1" parent="1">
          <mxGeometry x="70" y="100" width="60" height="30" as="geometry" />
        </mxCell>
        <mxCell id="ydF3F2oM5LsTnoHVHjbH-145" value="1" style="text;html=1;align=center;verticalAlign=middle;whiteSpace=wrap;rounded=0;" vertex="1" parent="1">
          <mxGeometry x="110" y="100" width="60" height="30" as="geometry" />
        </mxCell>
        <mxCell id="ydF3F2oM5LsTnoHVHjbH-146" value="1" style="text;html=1;align=center;verticalAlign=middle;whiteSpace=wrap;rounded=0;" vertex="1" parent="1">
          <mxGeometry x="130" y="90" width="60" height="30" as="geometry" />
        </mxCell>
        <mxCell id="ydF3F2oM5LsTnoHVHjbH-147" value="1" style="text;html=1;align=center;verticalAlign=middle;whiteSpace=wrap;rounded=0;" vertex="1" parent="1">
          <mxGeometry x="-220" y="290" width="60" height="30" as="geometry" />
        </mxCell>
        <mxCell id="ydF3F2oM5LsTnoHVHjbH-148" value="M" style="text;html=1;align=center;verticalAlign=middle;whiteSpace=wrap;rounded=0;" vertex="1" parent="1">
          <mxGeometry x="15" y="410" width="60" height="30" as="geometry" />
        </mxCell>
        <mxCell id="ydF3F2oM5LsTnoHVHjbH-149" value="M" style="text;html=1;align=center;verticalAlign=middle;whiteSpace=wrap;rounded=0;" vertex="1" parent="1">
          <mxGeometry x="70" y="390" width="60" height="30" as="geometry" />
        </mxCell>
        <mxCell id="ydF3F2oM5LsTnoHVHjbH-150" value="M" style="text;html=1;align=center;verticalAlign=middle;whiteSpace=wrap;rounded=0;" vertex="1" parent="1">
          <mxGeometry x="410" y="290" width="60" height="30" as="geometry" />
        </mxCell>
        <mxCell id="ydF3F2oM5LsTnoHVHjbH-151" value="M" style="text;html=1;align=center;verticalAlign=middle;whiteSpace=wrap;rounded=0;" vertex="1" parent="1">
          <mxGeometry x="710" y="250" width="60" height="30" as="geometry" />
        </mxCell>
      </root>
    </mxGraphModel>
  </diagram>
</mxfile>
